<svg xmlns="http://www.w3.org/2000/svg" width="128" height="128" viewBox="0 0 128 128">
  <defs>
    <linearGradient id="grad1" x1="0%" y1="0%" x2="100%" y2="100%">
      <stop offset="0%" style="stop-color:#ff7e5f;stop-opacity:1" />
      <stop offset="100%" style="stop-color:#feb47b;stop-opacity:1" />
    </linearGradient>
    <filter id="shadow" x="-20%" y="-20%" width="140%" height="140%">
      <feDropShadow dx="2" dy="2" stdDeviation="3" flood-color="#00000033" />
    </filter>
  </defs>
  <rect width="128" height="128" rx="24" ry="24" fill="url(#grad1)" filter="url(#shadow)"/>
  <g transform="translate(30, 30) scale(0.55)" fill="white" filter="url(#shadow)">
    <path d="M120.9 14.5a9 9 0 0 1 0 12.7L85.4 63l35.5 35.8a9 9 0 0 1 0 12.7 9 9 0 0 1-12.7 0L72.7 76 37.3 111.5a9 9 0 0 1-12.7 0 9 9 0 0 1 0-12.7L59.9 63 24.5 27.2a9 9 0 0 1 0-12.7 9 9 0 0 1 12.7 0L72.7 50l35.5-35.5a9 9 0 0 1 12.7 0z"/>
  </g>
</svg>